REM DIRINDEX 1\3,1\2\4,1\2\5,1\2\6
REM DIRNAME folder01,folder02,folder03,folder04,folder05,folder06
TITLE ""
FILE "135.mp3" MP3
  TRACK 01 AUDIO
    TITLE "4:cjc137_5725"
    INDEX 01 00:00:00
  TRACK 02 AUDIO
    TITLE "0:"
    INDEX 01 00:01:46
  TRACK 03 AUDIO
    TITLE "6:cjc137_5726"
    INDEX 01 00:01:52
  TRACK 04 AUDIO
    TITLE "0:"
    INDEX 01 00:02:63
  TRACK 05 AUDIO
    TITLE "5:cjc137_5727"
    INDEX 01 00:02:69
  TRACK 06 AUDIO
    TITLE "0:"
    INDEX 01 00:04:42
  TRACK 07 AUDIO
    TITLE "4:cjc137_5728"
    INDEX 01 00:05:52
  TRACK 08 AUDIO
    TITLE "0:"
    INDEX 01 00:06:49
  TRACK 09 AUDIO
    TITLE "6:cjc137_5729"
    INDEX 01 00:06:61
  TRACK 10 AUDIO
    TITLE "0:"
    INDEX 01 00:08:11
  TRACK 11 AUDIO
    TITLE "5:cjc137_5730"
    INDEX 01 00:08:19
  TRACK 12 AUDIO
    TITLE "0:"
    INDEX 01 00:09:16
  TRACK 13 AUDIO
    TITLE "4:cjc137_5731"
    INDEX 01 00:10:31
  TRACK 14 AUDIO
    TITLE "0:"
    INDEX 01 00:11:33
  TRACK 15 AUDIO
    TITLE "6:cjc137_5732"
    INDEX 01 00:11:40
  TRACK 16 AUDIO
    TITLE "0:"
    INDEX 01 00:12:71
  TRACK 17 AUDIO
    TITLE "5:cjc137_5733"
    INDEX 01 00:13:00
  TRACK 18 AUDIO
    TITLE "0:"
    INDEX 01 00:14:02
  TRACK 19 AUDIO
    TITLE "4:cjc137_5734"
    INDEX 01 00:15:13
  TRACK 20 AUDIO
    TITLE "0:"
    INDEX 01 00:16:20
  TRACK 21 AUDIO
    TITLE "6:cjc137_5735"
    INDEX 01 00:16:24
  TRACK 22 AUDIO
    TITLE "0:"
    INDEX 01 00:17:37
  TRACK 23 AUDIO
    TITLE "5:cjc137_5736"
    INDEX 01 00:17:45
  TRACK 24 AUDIO
    TITLE "0:"
    INDEX 01 00:18:50
  TRACK 25 AUDIO
    TITLE "4:cjc137_5737"
    INDEX 01 00:19:58
  TRACK 26 AUDIO
    TITLE "0:"
    INDEX 01 00:21:06
  TRACK 27 AUDIO
    TITLE "6:cjc137_5738"
    INDEX 01 00:21:15
  TRACK 28 AUDIO
    TITLE "0:"
    INDEX 01 00:22:25
  TRACK 29 AUDIO
    TITLE "5:cjc137_5739"
    INDEX 01 00:22:30
  TRACK 30 AUDIO
    TITLE "0:"
    INDEX 01 00:23:55
  TRACK 31 AUDIO
    TITLE "4:cjc137_5740"
    INDEX 01 00:24:63
  TRACK 32 AUDIO
    TITLE "0:"
    INDEX 01 00:26:11
  TRACK 33 AUDIO
    TITLE "6:cjc137_5741"
    INDEX 01 00:26:18
  TRACK 34 AUDIO
    TITLE "0:"
    INDEX 01 00:28:35
  TRACK 35 AUDIO
    TITLE "5:cjc137_5742"
    INDEX 01 00:28:39
  TRACK 36 AUDIO
    TITLE "0:"
    INDEX 01 00:29:64
  TRACK 37 AUDIO
    TITLE "4:cjc137_5743"
    INDEX 01 00:31:00
  TRACK 38 AUDIO
    TITLE "0:"
    INDEX 01 00:32:07
  TRACK 39 AUDIO
    TITLE "6:cjc137_5744"
    INDEX 01 00:32:13
  TRACK 40 AUDIO
    TITLE "0:"
    INDEX 01 00:33:34
  TRACK 41 AUDIO
    TITLE "5:cjc137_5745"
    INDEX 01 00:33:40
  TRACK 42 AUDIO
    TITLE "0:"
    INDEX 01 00:34:47
  TRACK 43 AUDIO
    TITLE "4:cjc137_5746"
    INDEX 01 00:35:57
  TRACK 44 AUDIO
    TITLE "0:"
    INDEX 01 00:36:70
  TRACK 45 AUDIO
    TITLE "6:cjc137_5747"
    INDEX 01 00:37:03
  TRACK 46 AUDIO
    TITLE "0:"
    INDEX 01 00:38:24
  TRACK 47 AUDIO
    TITLE "5:cjc137_5748"
    INDEX 01 00:38:35
  TRACK 48 AUDIO
    TITLE "0:"
    INDEX 01 00:39:47
  TRACK 49 AUDIO
    TITLE "4:cjc137_5749"
    INDEX 01 00:40:56
  TRACK 50 AUDIO
    TITLE "0:"
    INDEX 01 00:41:65
  TRACK 51 AUDIO
    TITLE "6:cjc137_5750"
    INDEX 01 00:41:71
  TRACK 52 AUDIO
    TITLE "0:"
    INDEX 01 00:43:03
  TRACK 53 AUDIO
    TITLE "5:cjc137_5751"
    INDEX 01 00:43:09
  TRACK 54 AUDIO
    TITLE "0:"
    INDEX 01 00:44:18
  TRACK 55 AUDIO
    TITLE "4:cjc137_5752"
    INDEX 01 00:45:26
  TRACK 56 AUDIO
    TITLE "0:"
    INDEX 01 00:46:39
  TRACK 57 AUDIO
    TITLE "6:cjc137_5753"
    INDEX 01 00:46:47
  TRACK 58 AUDIO
    TITLE "0:"
    INDEX 01 00:47:56
  TRACK 59 AUDIO
    TITLE "5:cjc137_5754"
    INDEX 01 00:47:68
  TRACK 60 AUDIO
    TITLE "0:"
    INDEX 01 00:49:06
  TRACK 61 AUDIO
    TITLE "4:cjc137_5755"
    INDEX 01 00:50:15
  TRACK 62 AUDIO
    TITLE "0:"
    INDEX 01 00:51:28
  TRACK 63 AUDIO
    TITLE "6:cjc137_5756"
    INDEX 01 00:51:34
  TRACK 64 AUDIO
    TITLE "0:"
    INDEX 01 00:52:36
  TRACK 65 AUDIO
    TITLE "5:cjc137_5757"
    INDEX 01 00:52:39
  TRACK 66 AUDIO
    TITLE "0:"
    INDEX 01 00:53:53
  TRACK 67 AUDIO
    TITLE "4:cjc137_5758"
    INDEX 01 00:54:62
  TRACK 68 AUDIO
    TITLE "0:"
    INDEX 01 00:56:16
  TRACK 69 AUDIO
    TITLE "6:cjc137_5759"
    INDEX 01 00:56:24
  TRACK 70 AUDIO
    TITLE "0:"
    INDEX 01 00:57:56
  TRACK 71 AUDIO
    TITLE "5:cjc137_5760"
    INDEX 01 00:57:60
  TRACK 72 AUDIO
    TITLE "0:"
    INDEX 01 00:59:14
  TRACK 73 AUDIO
    TITLE "4:cjc137_5761"
    INDEX 01 01:00:23
  TRACK 74 AUDIO
    TITLE "0:"
    INDEX 01 01:01:27
  TRACK 75 AUDIO
    TITLE "6:cjc137_5762"
    INDEX 01 01:01:33
  TRACK 76 AUDIO
    TITLE "0:"
    INDEX 01 01:02:42
  TRACK 77 AUDIO
    TITLE "5:cjc137_5763"
    INDEX 01 01:02:52
  TRACK 78 AUDIO
    TITLE "0:"
    INDEX 01 01:03:55
  TRACK 79 AUDIO
    TITLE "4:cjc137_5764"
    INDEX 01 01:04:64
  TRACK 80 AUDIO
    TITLE "0:"
    INDEX 01 01:06:16
  TRACK 81 AUDIO
    TITLE "6:cjc137_5765"
    INDEX 01 01:06:22
  TRACK 82 AUDIO
    TITLE "0:"
    INDEX 01 01:07:68
  TRACK 83 AUDIO
    TITLE "5:cjc137_5766"
    INDEX 01 01:08:01
  TRACK 84 AUDIO
    TITLE "0:"
    INDEX 01 01:09:28
  TRACK 85 AUDIO
    TITLE "4:cjc137_5767"
    INDEX 01 01:10:35
  TRACK 86 AUDIO
    TITLE "0:"
    INDEX 01 01:11:33
  TRACK 87 AUDIO
    TITLE "6:cjc137_5768"
    INDEX 01 01:11:41
  TRACK 88 AUDIO
    TITLE "0:"
    INDEX 01 01:12:64
  TRACK 89 AUDIO
    TITLE "5:cjc137_5769"
    INDEX 01 01:12:73
  TRACK 90 AUDIO
    TITLE "0:"
    INDEX 01 01:13:71
  TRACK 91 AUDIO
    TITLE "4:cjc137_5770"
    INDEX 01 01:15:03
  TRACK 92 AUDIO
    TITLE "0:"
    INDEX 01 01:16:32
  TRACK 93 AUDIO
    TITLE "6:cjc137_5771"
    INDEX 01 01:16:42
  TRACK 94 AUDIO
    TITLE "0:"
    INDEX 01 01:17:57
  TRACK 95 AUDIO
    TITLE "5:cjc137_5772"
    INDEX 01 01:17:63
  TRACK 96 AUDIO
    TITLE "0:"
    INDEX 01 01:19:15
  TRACK 97 AUDIO
    TITLE "4:cjc137_5773"
    INDEX 01 01:20:28
  TRACK 98 AUDIO
    TITLE "0:"
    INDEX 01 01:21:41
  TRACK 99 AUDIO
    TITLE "6:cjc137_5774"
    INDEX 01 01:21:47
  TRACK 100 AUDIO
    TITLE "0:"
    INDEX 01 01:23:01
  TRACK 101 AUDIO
    TITLE "5:cjc137_5775"
    INDEX 01 01:23:09
  TRACK 102 AUDIO
    TITLE "0:"
    INDEX 01 01:24:20
  TRACK 103 AUDIO
    TITLE "4:cjc137_5776"
    INDEX 01 01:25:29
  TRACK 104 AUDIO
    TITLE "0:"
    INDEX 01 01:26:44
  TRACK 105 AUDIO
    TITLE "6:cjc137_5777"
    INDEX 01 01:26:54
  TRACK 106 AUDIO
    TITLE "0:"
    INDEX 01 01:27:51
  TRACK 107 AUDIO
    TITLE "5:cjc137_5778"
    INDEX 01 01:27:55
  TRACK 108 AUDIO
    TITLE "0:"
    INDEX 01 01:28:69
  TRACK 109 AUDIO
    TITLE "4:cjc137_5779"
    INDEX 01 01:30:03
  TRACK 110 AUDIO
    TITLE "0:"
    INDEX 01 01:31:18
  TRACK 111 AUDIO
    TITLE "6:cjc137_5780"
    INDEX 01 01:31:26
  TRACK 112 AUDIO
    TITLE "0:"
    INDEX 01 01:32:45
  TRACK 113 AUDIO
    TITLE "5:cjc137_5781"
    INDEX 01 01:32:53
  TRACK 114 AUDIO
    TITLE "0:"
    INDEX 01 01:33:68
  TRACK 115 AUDIO
    TITLE "4:cjc137_5782"
    INDEX 01 01:35:04
  TRACK 116 AUDIO
    TITLE "0:"
    INDEX 01 01:36:17
  TRACK 117 AUDIO
    TITLE "6:cjc137_5783"
    INDEX 01 01:36:21
  TRACK 118 AUDIO
    TITLE "0:"
    INDEX 01 01:37:36
  TRACK 119 AUDIO
    TITLE "5:cjc137_5784"
    INDEX 01 01:37:44
  TRACK 120 AUDIO
    TITLE "0:"
    INDEX 01 01:38:57
